[img]http://prikachi.com/images/589/5293589G.jpg[/img]


[img]http://prikachi.com/images/242/5294242p.jpg[/img]


[img]http://prikachi.com/images/243/5294243k.jpg[/img]


[img]http://prikachi.com/images/244/5294244S.jpg[/img]


[img]http://prikachi.com/images/245/5294245i.jpg[/img]


Rapid Reaction Corps (2012)




Genre: BG, Comedy, Action
Director: Stanislav Donchev
Cast: Zlatka Dimitrova, Coco Tyson, Diana Lyubenova, Bashar Rahal, Carla Rahal, Marianne Valev, Vasco Mavrikov, Evgeni Budinova, Stoyko Peev Ivelin Naydenov Latinka Petrova
Release: 2012.
Duration: 92 minutes min


Official website

Summary: Regardless of emergency three agents Rapid Reaction Corps (CBD) - Vasco, Getsata and boron are ready. By removing the cat from the tree to industrial espionage - if any of them is equally important. Featuring minivan with mind, courage and speed - nothing can build them. The three are employed by a lady who suspects her husband of cheating. Aces discover the painful truth that her husband really related to one lady. Also found that it is the basis of a criminal organization and preparing technology of counterfeit euro banknotes. Vasco decided to reveal the criminals to do their advertising. Capture for work that they can do best - monitoring, interception, disguise .... i run faster.



General
Complete name                    :Korpus.Za.Byrzo.Reagirane.2012.WEB-DL.XviD-ZmN.avi
Format                           : AVI
Format/Info                      : Audio Video Interleave
File size                        : 694 MiB
Duration                         : 1h 32mn
Overall bit rate                 : 1 048 Kbps

Video
ID                               : 0
Format                           : MPEG-4 Visual
Format profile                   : Advanced Simple@L5
Format settings, BVOP            : 2
Format settings, QPel            : No
Format settings, GMC             : No warppoints
Format settings, Matrix          : Default (H.263)
Codec ID                         : XVID
Codec ID/Hint                    : XviD
Duration                         : 1h 32mn
Bit rate                         : 914 Kbps
Width                            : 624 pixels
Height                           : 352 pixels
Display aspect ratio             : 16:9
Frame rate                       : 24.000 fps
Color space                      : YUV
Chroma subsampling               : 4:2:0
Bit depth                        : 8 bits
Scan type                        : Progressive
Compression mode                 : Lossy
Bits/(Pixel*Frame)               : 0.173
Stream size                      : 605 MiB (87%)
Writing library                  : XviD 1.2.1 (UTC 2008-12-04)

Audio
ID                               : 1
Format                           : MPEG Audio
Format version                   : Version 1
Format profile                   : Layer 3
Mode                             : Joint stereo
Mode extension                   : MS Stereo
Codec ID                         : 55
Codec ID/Hint                    : MP3
Duration                         : 1h 32mn
Bit rate mode                    : Constant
Bit rate                         : 128 Kbps
Channel(s)                       : 2 channels
Sampling rate                    : 44.1 KHz
Compression mode                 : Lossy
Stream size                      : 84.7 MiB (12%)
Alignment                        : Aligned on interleaves
Interleave, duration             : 167 ms (4.00 video frames)
Interleave, preload duration     : 208 ms
Title                            : myfilm.bg -     -   .mp4_track_1_
Writing library                  : LAME3.99r
Encoding settings                : -m j -V 4 -q 2 -lowpass 17 -b 128